<mxfile host="app.diagrams.net" modified="2022-11-01T12:30:14.452Z" agent="5.0 (Macintosh; Intel Mac OS X 10_15_7) AppleWebKit/537.36 (KHTML, like Gecko) Chrome/106.0.0.0 Safari/537.36" etag="O2t8IfjkZrEqLSVQCTgX" version="20.5.1" type="github">
  <diagram id="pgZ3SwVD17-PGnV9uRLD" name="第 1 页">
    <mxGraphModel dx="1426" dy="737" grid="1" gridSize="10" guides="1" tooltips="1" connect="1" arrows="1" fold="1" page="1" pageScale="1" pageWidth="3300" pageHeight="4681" math="0" shadow="0">
      <root>
        <mxCell id="0" />
        <mxCell id="1" parent="0" />
        <mxCell id="r-zv2CLeMM40Q0NJLQBN-1" value="" style="rounded=0;whiteSpace=wrap;html=1;fillColor=#fff2cc;strokeColor=#d6b656;" vertex="1" parent="1">
          <mxGeometry x="340" y="160" width="160" height="370" as="geometry" />
        </mxCell>
        <mxCell id="r-zv2CLeMM40Q0NJLQBN-2" value="&lt;font color=&quot;#6600cc&quot;&gt;let &lt;/font&gt;&lt;font color=&quot;#0000ff&quot;&gt;age&lt;/font&gt; = &lt;font color=&quot;#00994d&quot;&gt;18&lt;/font&gt;" style="text;html=1;align=left;verticalAlign=middle;resizable=0;points=[];autosize=1;strokeColor=none;fillColor=none;" vertex="1" parent="1">
          <mxGeometry x="362" y="220" width="90" height="30" as="geometry" />
        </mxCell>
        <mxCell id="r-zv2CLeMM40Q0NJLQBN-3" value="&lt;font color=&quot;#6600cc&quot;&gt;let &lt;/font&gt;&lt;font color=&quot;#0000ff&quot;&gt;age_a&lt;/font&gt; = age" style="text;html=1;align=left;verticalAlign=middle;resizable=0;points=[];autosize=1;strokeColor=none;fillColor=none;" vertex="1" parent="1">
          <mxGeometry x="362" y="280" width="110" height="30" as="geometry" />
        </mxCell>
        <mxCell id="r-zv2CLeMM40Q0NJLQBN-5" value="&lt;font color=&quot;#0000ff&quot;&gt;age&lt;/font&gt;&amp;nbsp;= 30" style="text;html=1;align=left;verticalAlign=middle;resizable=0;points=[];autosize=1;strokeColor=none;fillColor=none;" vertex="1" parent="1">
          <mxGeometry x="362" y="340" width="70" height="30" as="geometry" />
        </mxCell>
        <mxCell id="r-zv2CLeMM40Q0NJLQBN-6" value="" style="rounded=0;whiteSpace=wrap;html=1;fillColor=#d5e8d4;strokeColor=#82b366;" vertex="1" parent="1">
          <mxGeometry x="570" y="160" width="310" height="370" as="geometry" />
        </mxCell>
        <mxCell id="r-zv2CLeMM40Q0NJLQBN-7" value="调用栈" style="text;html=1;align=center;verticalAlign=middle;resizable=0;points=[];autosize=1;strokeColor=none;fillColor=none;fontColor=#000000;" vertex="1" parent="1">
          <mxGeometry x="695" y="500" width="60" height="30" as="geometry" />
        </mxCell>
        <mxCell id="r-zv2CLeMM40Q0NJLQBN-8" value="" style="whiteSpace=wrap;html=1;fillColor=#f8cecc;strokeColor=#b85450;" vertex="1" parent="1">
          <mxGeometry x="585" y="200" width="280" height="270" as="geometry" />
        </mxCell>
        <mxCell id="r-zv2CLeMM40Q0NJLQBN-9" value="执行上下文" style="text;html=1;align=center;verticalAlign=middle;resizable=0;points=[];autosize=1;strokeColor=none;fillColor=none;fontColor=#000000;" vertex="1" parent="1">
          <mxGeometry x="680" y="440" width="80" height="30" as="geometry" />
        </mxCell>
        <mxCell id="r-zv2CLeMM40Q0NJLQBN-10" value="" style="rounded=0;whiteSpace=wrap;html=1;fontColor=#000000;" vertex="1" parent="1">
          <mxGeometry x="620" y="240" width="230" height="60" as="geometry" />
        </mxCell>
        <mxCell id="r-zv2CLeMM40Q0NJLQBN-13" value="" style="endArrow=none;html=1;rounded=0;fontColor=#000000;entryX=0.5;entryY=0;entryDx=0;entryDy=0;exitX=0.5;exitY=1;exitDx=0;exitDy=0;" edge="1" parent="1" source="r-zv2CLeMM40Q0NJLQBN-10" target="r-zv2CLeMM40Q0NJLQBN-10">
          <mxGeometry width="50" height="50" relative="1" as="geometry">
            <mxPoint x="260" y="500" as="sourcePoint" />
            <mxPoint x="310" y="450" as="targetPoint" />
          </mxGeometry>
        </mxCell>
        <mxCell id="r-zv2CLeMM40Q0NJLQBN-14" value="00XXX2&lt;br&gt;" style="text;html=1;align=center;verticalAlign=middle;resizable=0;points=[];autosize=1;strokeColor=none;fillColor=none;fontColor=#000000;" vertex="1" parent="1">
          <mxGeometry x="640" y="255" width="70" height="30" as="geometry" />
        </mxCell>
        <mxCell id="r-zv2CLeMM40Q0NJLQBN-15" value="18" style="text;html=1;align=center;verticalAlign=middle;resizable=0;points=[];autosize=1;strokeColor=none;fillColor=none;fontColor=#000000;" vertex="1" parent="1">
          <mxGeometry x="770" y="255" width="40" height="30" as="geometry" />
        </mxCell>
        <mxCell id="r-zv2CLeMM40Q0NJLQBN-16" value="" style="rounded=0;whiteSpace=wrap;html=1;fontColor=#000000;" vertex="1" parent="1">
          <mxGeometry x="620" y="350" width="230" height="60" as="geometry" />
        </mxCell>
        <mxCell id="r-zv2CLeMM40Q0NJLQBN-17" value="" style="endArrow=none;html=1;rounded=0;fontColor=#000000;entryX=0.5;entryY=0;entryDx=0;entryDy=0;exitX=0.5;exitY=1;exitDx=0;exitDy=0;" edge="1" source="r-zv2CLeMM40Q0NJLQBN-16" target="r-zv2CLeMM40Q0NJLQBN-16" parent="1">
          <mxGeometry width="50" height="50" relative="1" as="geometry">
            <mxPoint x="260" y="610" as="sourcePoint" />
            <mxPoint x="310" y="560" as="targetPoint" />
          </mxGeometry>
        </mxCell>
        <mxCell id="r-zv2CLeMM40Q0NJLQBN-18" value="00XXX2&lt;br&gt;" style="text;html=1;align=center;verticalAlign=middle;resizable=0;points=[];autosize=1;strokeColor=none;fillColor=none;fontColor=#000000;" vertex="1" parent="1">
          <mxGeometry x="640" y="365" width="70" height="30" as="geometry" />
        </mxCell>
        <mxCell id="r-zv2CLeMM40Q0NJLQBN-19" value="30" style="text;html=1;align=center;verticalAlign=middle;resizable=0;points=[];autosize=1;strokeColor=none;fillColor=none;fontColor=#000000;" vertex="1" parent="1">
          <mxGeometry x="770" y="365" width="40" height="30" as="geometry" />
        </mxCell>
        <mxCell id="r-zv2CLeMM40Q0NJLQBN-23" style="edgeStyle=orthogonalEdgeStyle;orthogonalLoop=1;jettySize=auto;html=1;entryX=0;entryY=0.5;entryDx=0;entryDy=0;fontColor=#000000;rounded=1;dashed=1;" edge="1" parent="1" target="r-zv2CLeMM40Q0NJLQBN-10">
          <mxGeometry relative="1" as="geometry">
            <mxPoint x="389" y="240" as="sourcePoint" />
            <Array as="points">
              <mxPoint x="389" y="270" />
            </Array>
          </mxGeometry>
        </mxCell>
        <mxCell id="r-zv2CLeMM40Q0NJLQBN-27" value="1" style="edgeLabel;html=1;align=center;verticalAlign=middle;resizable=0;points=[];fontColor=#000000;" vertex="1" connectable="0" parent="r-zv2CLeMM40Q0NJLQBN-23">
          <mxGeometry x="-0.0115" y="-1" relative="1" as="geometry">
            <mxPoint as="offset" />
          </mxGeometry>
        </mxCell>
        <mxCell id="r-zv2CLeMM40Q0NJLQBN-24" style="edgeStyle=orthogonalEdgeStyle;orthogonalLoop=1;jettySize=auto;html=1;entryX=0;entryY=0.75;entryDx=0;entryDy=0;fontColor=#000000;rounded=1;" edge="1" parent="1" target="r-zv2CLeMM40Q0NJLQBN-10">
          <mxGeometry relative="1" as="geometry">
            <mxPoint x="390" y="300" as="sourcePoint" />
            <Array as="points">
              <mxPoint x="390" y="320" />
              <mxPoint x="505" y="320" />
              <mxPoint x="505" y="285" />
            </Array>
          </mxGeometry>
        </mxCell>
        <mxCell id="r-zv2CLeMM40Q0NJLQBN-28" value="2" style="edgeLabel;html=1;align=center;verticalAlign=middle;resizable=0;points=[];fontColor=#000000;" vertex="1" connectable="0" parent="r-zv2CLeMM40Q0NJLQBN-24">
          <mxGeometry x="-0.1649" y="2" relative="1" as="geometry">
            <mxPoint as="offset" />
          </mxGeometry>
        </mxCell>
        <mxCell id="r-zv2CLeMM40Q0NJLQBN-25" style="edgeStyle=orthogonalEdgeStyle;rounded=1;orthogonalLoop=1;jettySize=auto;html=1;entryX=0;entryY=0.5;entryDx=0;entryDy=0;fontColor=#000000;" edge="1" parent="1" target="r-zv2CLeMM40Q0NJLQBN-16">
          <mxGeometry relative="1" as="geometry">
            <mxPoint x="380" y="360" as="sourcePoint" />
            <Array as="points">
              <mxPoint x="380" y="390" />
              <mxPoint x="500" y="390" />
              <mxPoint x="500" y="380" />
            </Array>
          </mxGeometry>
        </mxCell>
        <mxCell id="r-zv2CLeMM40Q0NJLQBN-29" value="3" style="edgeLabel;html=1;align=center;verticalAlign=middle;resizable=0;points=[];fontColor=#000000;" vertex="1" connectable="0" parent="r-zv2CLeMM40Q0NJLQBN-25">
          <mxGeometry x="-0.0214" y="-1" relative="1" as="geometry">
            <mxPoint as="offset" />
          </mxGeometry>
        </mxCell>
      </root>
    </mxGraphModel>
  </diagram>
</mxfile>
